<svg width="244" height="87" viewBox="0 0 244 87" fill="none" xmlns="http://www.w3.org/2000/svg">
<g clip-path="url(#clip0_5322_3433)">
<path d="M106.12 5.8348C105.727 6.37824 105.191 6.63565 104.49 6.63565H93.4998C93.2352 6.63565 93.0064 6.62135 92.8134 6.59275C92.6274 6.56415 92.463 6.52125 92.3271 6.46404C92.1913 6.40684 92.084 6.32818 91.9982 6.24953C91.9124 6.16372 91.8051 6.02071 91.6907 5.8348L91.6621 5.7919H91.3403V10.1179H91.6979V10.0393C91.7908 8.96671 92.1055 8.27312 92.6346 7.95849C93.178 7.64387 93.8573 7.47941 94.6582 7.47941H97.9474V21.6445C97.9474 22.2809 97.7829 22.7386 97.454 22.996C97.1251 23.2605 96.7104 23.4036 96.2241 23.4179H96.1383V23.7825H101.723V23.425H101.637C100.457 23.3821 99.878 22.8029 99.878 21.6445V7.48656H103.167C103.968 7.48656 104.655 7.64387 105.198 7.96565C105.727 8.27312 106.042 8.97386 106.12 10.0464V10.1322H106.485V5.8062H106.163L106.135 5.84195L106.12 5.8348Z" fill="white"/>
<path d="M117.926 9.04537H118.012C118.534 9.04537 118.927 9.18838 119.17 9.48155C119.42 9.77472 119.542 10.1537 119.542 10.6185V15.5237H111.176V10.6185C111.176 10.1465 111.297 9.76757 111.548 9.4744C111.791 9.18838 112.177 9.04537 112.713 9.04537H112.799V8.695H107.872V9.04537H107.958C108.966 9.04537 109.46 9.56021 109.46 10.6185V21.8948C109.46 22.3882 109.331 22.7743 109.074 23.046C108.816 23.3106 108.444 23.4465 107.958 23.4465H107.872V23.7897H112.799V23.4465H112.713C112.248 23.4465 111.869 23.3106 111.598 23.0389C111.326 22.7743 111.183 22.3882 111.183 21.8948V16.153H119.549V21.9163C119.549 22.4239 119.413 22.8101 119.149 23.0603C118.877 23.3177 118.498 23.4465 118.019 23.4465H117.933V23.7897H122.86V23.4465H122.774C121.759 23.4465 121.265 22.9388 121.265 21.8948V10.6185C121.265 10.1465 121.387 9.76757 121.63 9.4744C121.866 9.18838 122.252 9.04537 122.774 9.04537H122.86V8.695H117.933V9.04537H117.926Z" fill="white"/>
<path d="M133.371 21.2727L133.349 21.3299C133.221 21.7089 133.049 22.045 132.863 22.3095C132.677 22.5741 132.413 22.7815 132.084 22.9316C131.755 23.0818 131.326 23.1533 130.804 23.1533H128.587C128.072 23.1533 127.743 23.0246 127.608 22.7672C127.465 22.4883 127.386 22.1594 127.386 21.7732V16.5677H130.16C130.418 16.5677 130.668 16.5891 130.918 16.6249C131.033 16.6249 131.169 16.6535 131.326 16.7178C131.476 16.7822 131.633 16.9109 131.791 17.104C131.948 17.297 132.055 17.5759 132.112 17.9477L132.127 18.0264H132.441V14.4654H132.12V14.5441C132.055 15.1447 131.834 15.5094 131.44 15.6739C131.026 15.8455 130.554 15.9313 130.024 15.9313H127.379V9.33854H130.396C132.027 9.33854 132.82 9.92488 132.82 11.1333V11.2191H133.142V8.68784H124.075V9.03822H124.368C124.855 9.03822 125.184 9.18838 125.37 9.503C125.563 9.82477 125.663 10.2109 125.663 10.6542V21.8948C125.663 22.4454 125.52 22.8458 125.241 23.0818C124.955 23.3249 124.662 23.4465 124.368 23.4465H124.075V23.7897H133.128L133.686 21.2727H133.371Z" fill="white"/>
<path d="M182.795 56.2958C182.309 56.2529 181.908 56.1671 181.594 56.0384C181.286 55.9168 180.965 55.6094 180.628 55.1303C180.285 54.644 179.913 53.8432 179.52 52.7492L172.062 31.405L172.041 31.3477H170.089L163.031 52.8564C162.666 53.979 162.23 54.8228 161.737 55.3734C161.251 55.9097 160.6 56.2243 159.792 56.303H159.713V56.7534H165.741V56.303H165.655C165.033 56.303 164.547 56.1885 164.218 55.974C163.896 55.7595 163.732 55.3162 163.732 54.6512C163.732 54.1578 163.868 53.4857 164.132 52.6634L166.092 46.5997H174.586L176.774 53.1424C176.774 53.1996 176.803 53.2711 176.846 53.357C177.053 53.9862 177.161 54.4939 177.161 54.8657C177.161 55.5307 176.96 55.924 176.546 56.067C176.102 56.2243 175.466 56.2958 174.644 56.2958H174.558V56.7463H182.874V56.303H182.795V56.2958ZM174.122 45.5129H166.435L170.153 33.9577L174.122 45.5129Z" fill="white"/>
<path d="M110.847 33.0067C110.454 32.0771 109.846 31.2333 109.045 30.4897C108.244 29.7532 107.236 29.1597 106.035 28.7307C104.84 28.3016 103.439 28.0871 101.88 28.0871H92.4558V28.5948H92.9135C93.0422 28.6163 93.2781 28.6806 93.6142 28.7664C93.9431 28.8522 94.2434 28.9881 94.5152 29.1668C94.7797 29.3456 95.0085 29.6459 95.2088 30.0678C95.409 30.4897 95.5091 31.0331 95.5091 31.6695V53.2068C95.5091 54.2722 95.2302 55.0445 94.6796 55.5092C94.1219 55.974 93.4068 56.2243 92.5416 56.2529H92.4558V56.7391H101.701V56.2529H101.616C99.592 56.1885 98.6124 55.1946 98.6124 53.2068V43.4893C100.064 43.6394 101.058 43.7109 101.58 43.7109C103.246 43.7109 104.733 43.4964 106.013 43.0674C107.293 42.6384 108.344 42.0592 109.138 41.337C109.932 40.6148 110.518 39.7782 110.89 38.8486C111.262 37.919 111.448 36.9466 111.448 35.9455C111.448 34.9444 111.247 33.9291 110.854 32.9995L110.847 33.0067ZM98.6052 29.2598C99.4991 29.1025 100.386 29.0238 101.244 29.0238C103.496 29.0238 105.205 29.696 106.306 31.0331C107.415 32.3703 107.98 34.1078 107.98 36.1886C107.98 38.7127 107.343 40.4575 106.092 41.387C104.833 42.3166 103.275 42.7885 101.458 42.7885C100.522 42.7885 99.5706 42.7027 98.6124 42.5311V29.267L98.6052 29.2598Z" fill="white"/>
<path d="M129.917 52.6562L129.896 52.7134C129.674 53.357 129.395 53.9147 129.073 54.3652C128.752 54.8085 128.308 55.166 127.751 55.4163C127.193 55.6666 126.464 55.7953 125.591 55.7953H121.887C121.001 55.7953 120.436 55.5665 120.2 55.116C119.957 54.644 119.828 54.0792 119.828 53.4356V44.6763H124.526C124.962 44.6763 125.384 44.712 125.791 44.7764C125.992 44.7764 126.228 44.8336 126.492 44.9408C126.757 45.0481 127.021 45.2697 127.293 45.5987C127.565 45.9276 127.751 46.4138 127.851 47.0359L127.865 47.1146H128.287V41.2869H127.865V41.3656C127.758 42.3738 127.372 43.0245 126.692 43.3034C125.999 43.5894 125.191 43.7395 124.311 43.7395H119.835V32.6062H124.94C127.701 32.6062 129.045 33.6073 129.045 35.6595V35.7453H129.46V31.6409H114.429V32.1057H114.858C115.681 32.1057 116.26 32.3774 116.582 32.9066C116.918 33.4571 117.082 34.1078 117.082 34.8586V53.6358C117.082 54.5725 116.839 55.259 116.353 55.6666C115.867 56.0813 115.359 56.2887 114.851 56.2887H114.422V56.7391H129.431L130.332 52.6562H129.917Z" fill="white"/>
<path d="M150.225 46.0635V46.5211H150.303C151.219 46.6426 151.912 46.8715 152.363 47.2075C152.806 47.5365 153.028 48.2372 153.028 49.2812V53.8503C153.028 54.4653 152.928 54.9515 152.727 55.309C152.534 55.6594 152.069 55.9383 151.354 56.1456C150.625 56.353 149.46 56.4603 147.894 56.4603C143.939 56.4603 141.029 55.3019 139.249 53.0137C137.461 50.7184 136.553 47.608 136.553 43.7681C136.553 41.3584 136.925 39.3277 137.661 37.7403C138.398 36.1529 139.334 34.9301 140.443 34.0935C141.558 33.2569 142.717 32.6777 143.889 32.356C145.069 32.0413 146.185 31.8769 147.207 31.8769C149.181 31.8769 150.954 32.3274 152.491 33.2069C154.014 34.0864 154.973 35.3377 155.323 36.9323L155.337 37.0038H155.766V31.1046H155.352L155.33 31.1547C155.087 31.6767 154.715 31.9341 154.193 31.9341C153.943 31.9341 153.514 31.8697 152.928 31.7339C151.412 31.4121 150.253 31.1904 149.488 31.0832C148.716 30.9759 147.922 30.9187 147.121 30.9187C145.048 30.9187 143.124 31.2905 141.422 32.0199C139.713 32.7492 138.255 33.7575 137.068 35.0159C135.888 36.2744 134.973 37.7188 134.343 39.3134C133.714 40.9079 133.4 42.5669 133.4 44.2544C133.4 47.1503 134.243 49.7746 135.902 52.0699C137.011 53.5929 138.305 54.7656 139.756 55.545C141.201 56.3244 142.609 56.8321 143.946 57.0609C145.276 57.2897 146.642 57.4041 148.001 57.4041C150.632 57.4041 153.228 57.0681 155.702 56.4031L155.766 56.3888V49.3884C155.766 48.7735 155.831 48.2658 155.966 47.894C156.095 47.5293 156.353 47.229 156.739 47.0002C157.132 46.7642 157.697 46.6069 158.426 46.5282H158.505V46.0635H150.225Z" fill="white"/>
<path d="M197.718 46.6069C196.703 45.6058 195.266 44.5904 193.435 43.5894C192.348 42.9816 191.476 42.4739 190.832 42.0806C190.196 41.6873 189.638 41.2512 189.173 40.8007C188.709 40.3502 188.358 39.8211 188.122 39.2347C187.886 38.6412 187.765 37.9548 187.765 37.1968C187.765 36.2101 187.965 35.3306 188.365 34.5655C188.766 33.8075 189.331 33.1997 190.06 32.7564C190.789 32.3131 191.633 32.0914 192.57 32.0914C194 32.0914 195.173 32.5419 196.052 33.4285C196.932 34.3152 197.454 35.3663 197.611 36.5461V36.6248H198.061V31.1189H197.632L197.611 31.1833C197.489 31.6481 197.268 31.8769 196.939 31.8769C196.646 31.8769 196.417 31.834 196.238 31.7482C195.087 31.3763 193.943 31.1833 192.842 31.1833C191.39 31.1833 190.074 31.5122 188.923 32.17C187.772 32.8279 186.878 33.7003 186.249 34.78C185.627 35.8597 185.305 37.0038 185.305 38.1908C185.305 39.2133 185.484 40.1357 185.834 40.9222C186.184 41.716 186.671 42.4095 187.264 42.9887C187.858 43.5679 188.451 44.0399 189.03 44.4045C189.602 44.7621 190.503 45.2769 191.69 45.9276C193.406 46.8429 194.708 47.751 195.552 48.6233C196.381 49.4885 196.803 50.6183 196.803 51.9841C196.803 52.6419 196.66 53.314 196.374 53.979C196.088 54.6369 195.566 55.2018 194.829 55.6666C194.086 56.1313 193.078 56.3602 191.84 56.3602C190.189 56.3602 188.766 55.8954 187.615 54.973C186.463 54.0577 185.677 52.6777 185.276 50.8829L185.262 50.8114H184.812V57.2325H185.262L185.276 57.161C185.398 56.6104 185.498 56.2457 185.569 56.0813C185.627 55.9454 185.755 55.8811 185.956 55.8811C186.034 55.8811 186.213 55.9097 186.606 56.0384C187.421 56.4317 188.229 56.7463 189.023 56.9679C189.817 57.1896 190.739 57.304 191.769 57.304C193.414 57.304 194.808 56.9822 195.923 56.3459C197.039 55.7095 197.883 54.88 198.433 53.8861C198.984 52.8922 199.263 51.841 199.263 50.7756C199.263 49.0238 198.741 47.6223 197.711 46.6069H197.718Z" fill="white"/>
<path d="M224.59 33.0353C224.897 32.4775 225.619 32.17 226.735 32.12H226.821V31.6552H218.676V32.1128H218.755C219.892 32.2201 220.621 32.5204 220.921 33.021C221.229 33.5358 221.386 34.1364 221.386 34.8014V48.416C221.386 51.4835 220.357 53.7359 218.326 55.1231C217.647 55.5879 216.917 55.924 216.138 56.1242C215.358 56.3244 214.679 56.4245 214.114 56.4245C212.763 56.4245 211.54 56.0741 210.475 55.3734C209.409 54.6798 208.601 53.693 208.072 52.456C207.572 51.2905 207.321 49.4528 207.321 46.993V34.8014C207.321 34.165 207.479 33.5858 207.779 33.071C208.079 32.5705 208.794 32.2487 209.91 32.1128H209.988V31.6481H201.98V32.1057H202.066C203.16 32.1987 203.853 32.4847 204.132 32.9638C204.418 33.4571 204.568 34.0721 204.568 34.7943V47.1932C204.568 48.2229 204.633 49.224 204.754 50.175C204.876 51.1331 205.183 52.0699 205.662 52.9565C206.335 54.2079 207.393 55.2733 208.816 56.117C210.239 56.9679 211.862 57.397 213.642 57.397C215.215 57.397 216.746 57.0037 218.19 56.2171C219.584 55.4663 220.657 54.2722 221.379 52.6848V56.7391H226.785V56.3029L226.713 56.2887C226.156 56.1885 225.684 56.0598 225.305 55.9025C224.94 55.7524 224.647 55.4949 224.432 55.1374C224.225 54.7727 224.118 54.2722 224.118 53.6358V34.7585C224.118 34.1793 224.282 33.593 224.597 33.0281L224.59 33.0353Z" fill="white"/>
<path d="M242.402 46.6069C241.386 45.6058 239.949 44.5904 238.118 43.5894C237.032 42.9816 236.159 42.4739 235.516 42.0806C234.879 41.6873 234.321 41.2512 233.857 40.8007C233.392 40.3502 233.042 39.8211 232.806 39.2347C232.57 38.6412 232.448 37.9548 232.448 37.1968C232.448 36.2101 232.648 35.3306 233.049 34.5655C233.449 33.8075 234.014 33.1997 234.743 32.7564C235.473 32.3131 236.316 32.0914 237.253 32.0914C238.683 32.0914 239.856 32.5419 240.736 33.4285C241.615 34.3152 242.137 35.3663 242.294 36.5461V36.6248H242.745V31.1189H242.316L242.294 31.1833C242.173 31.6481 241.951 31.8769 241.622 31.8769C241.329 31.8769 241.1 31.834 240.921 31.7482C239.77 31.3763 238.626 31.1833 237.525 31.1833C236.073 31.1833 234.758 31.5122 233.606 32.17C232.462 32.8207 231.561 33.7003 230.932 34.78C230.31 35.8597 229.988 37.0038 229.988 38.1908C229.988 39.2133 230.167 40.1357 230.517 40.9222C230.868 41.716 231.354 42.4095 231.948 42.9887C232.541 43.5679 233.135 44.0399 233.714 44.4045C234.286 44.7621 235.187 45.2769 236.374 45.9276C238.09 46.8429 239.391 47.751 240.235 48.6233C241.064 49.4885 241.486 50.6183 241.486 51.9841C241.486 52.6419 241.343 53.314 241.057 53.979C240.771 54.6369 240.249 55.2018 239.513 55.6666C238.769 56.1313 237.761 56.3602 236.524 56.3602C234.872 56.3602 233.449 55.8954 232.298 54.973C231.147 54.0577 230.36 52.6777 229.96 50.8829L229.945 50.8114H229.495V57.2325H229.945L229.96 57.161C230.081 56.6104 230.181 56.2457 230.253 56.0813C230.31 55.9454 230.439 55.8811 230.639 55.8811C230.718 55.8811 230.896 55.9097 231.297 56.0384C232.112 56.4317 232.92 56.7463 233.714 56.9679C234.507 57.1896 235.43 57.304 236.46 57.304C238.104 57.304 239.498 56.9822 240.614 56.3459C241.729 55.7095 242.573 54.88 243.124 53.8861C243.674 52.8922 243.953 51.841 243.953 50.7756C243.953 49.0238 243.431 47.6223 242.402 46.6069Z" fill="white"/>
<path d="M167.443 69.5743C167.014 68.5946 166.42 67.7366 165.663 67.0215C164.912 66.3065 164.054 65.7559 163.11 65.3769C162.166 64.9979 161.165 64.812 160.142 64.812C159.12 64.812 158.076 65.0122 157.118 65.4055C156.16 65.7988 155.287 66.3637 154.536 67.0859C153.786 67.8081 153.192 68.6661 152.777 69.6315C152.363 70.5968 152.148 71.6479 152.148 72.7491C152.148 74.1863 152.506 75.5235 153.206 76.739C153.907 77.9546 154.887 78.9342 156.109 79.6493C157.332 80.3643 158.698 80.729 160.164 80.729C161.63 80.729 162.974 80.3643 164.182 79.6493C165.384 78.9342 166.349 77.9546 167.043 76.7462C167.736 75.5378 168.094 74.2078 168.094 72.8063C168.094 71.6407 167.879 70.5467 167.45 69.5743H167.443ZM160.142 65.4556C160.936 65.4556 161.794 65.6486 162.702 66.0205C163.596 66.3923 164.404 67.1359 165.09 68.2371C165.777 69.3383 166.127 70.8899 166.127 72.8492C166.127 74.2078 165.941 75.3733 165.584 76.3172C165.219 77.2539 164.747 78.0047 164.168 78.5553C163.589 79.0987 162.945 79.4991 162.245 79.7422C160.764 80.2571 159.284 80.207 157.954 79.7136C157.254 79.4562 156.596 79.02 156.009 78.4266C155.423 77.8331 154.958 77.0608 154.622 76.1169C154.286 75.1731 154.114 74.0576 154.114 72.792C154.114 71.3547 154.322 70.1248 154.722 69.1524C155.13 68.1799 155.652 67.4148 156.274 66.8785C156.896 66.3422 157.554 65.9704 158.212 65.7702C158.877 65.57 159.527 65.4627 160.142 65.4627V65.4556Z" fill="white"/>
<path d="M149.502 69.5743C149.073 68.5946 148.48 67.7366 147.722 67.0215C146.971 66.3065 146.113 65.7559 145.169 65.3769C144.225 64.9979 143.224 64.812 142.202 64.812C141.179 64.812 140.135 65.0122 139.177 65.4055C138.219 65.7988 137.347 66.3637 136.596 67.0859C135.845 67.8081 135.252 68.6661 134.837 69.6315C134.422 70.5968 134.208 71.6479 134.208 72.7491C134.208 74.1863 134.565 75.5235 135.266 76.739C135.967 77.9546 136.946 78.9342 138.169 79.6493C139.392 80.3643 140.757 80.729 142.223 80.729C143.689 80.729 145.033 80.3643 146.242 79.6493C147.443 78.9342 148.408 77.9546 149.102 76.7462C149.796 75.5378 150.153 74.2078 150.153 72.8063C150.153 71.6407 149.939 70.5467 149.51 69.5743H149.502ZM142.202 65.4556C142.995 65.4556 143.854 65.6486 144.762 66.0205C145.655 66.3923 146.463 67.1359 147.15 68.2371C147.836 69.3383 148.187 70.8899 148.187 72.8492C148.187 74.2078 148.001 75.3733 147.643 76.3172C147.279 77.2539 146.807 78.0047 146.228 78.5553C145.648 79.0987 145.005 79.4991 144.304 79.7422C142.824 80.2571 141.351 80.207 140.014 79.7136C139.313 79.4562 138.655 79.02 138.069 78.4266C137.482 77.8331 137.018 77.0608 136.682 76.1169C136.346 75.1731 136.174 74.0576 136.174 72.792C136.174 71.3547 136.381 70.1248 136.782 69.1524C137.189 68.1799 137.711 67.4148 138.333 66.8785C138.955 66.3422 139.613 65.9704 140.271 65.7702C140.936 65.57 141.587 65.4627 142.202 65.4627V65.4556Z" fill="white"/>
<path d="M100.472 73.3855C99.7779 72.7062 98.7912 72.0126 97.547 71.3261C96.8033 70.9114 96.2098 70.5682 95.7736 70.2965C95.3446 70.0319 94.9656 69.7387 94.651 69.4241C94.3364 69.1166 94.1004 68.7663 93.9431 68.3658C93.7858 67.9654 93.7 67.5006 93.7 66.9858C93.7 66.3208 93.8359 65.7201 94.1076 65.2053C94.3721 64.6905 94.7583 64.2829 95.2517 63.9826C95.745 63.6823 96.3099 63.5321 96.9463 63.5321C97.9116 63.5321 98.7053 63.8324 99.2988 64.4331C99.8923 65.0337 100.25 65.7416 100.35 66.5424V66.6211H100.715V62.8099H100.371L100.357 62.8742C100.278 63.1817 100.135 63.3247 99.9281 63.3247C99.735 63.3247 99.5849 63.2961 99.4633 63.2389C98.6767 62.9815 97.8973 62.8528 97.1394 62.8528C96.1455 62.8528 95.2445 63.0816 94.458 63.5249C93.6714 63.9754 93.0565 64.5761 92.6274 65.3126C92.1984 66.0491 91.9839 66.8356 91.9839 67.6508C91.9839 68.3515 92.1054 68.9808 92.3486 69.5242C92.5917 70.0676 92.9206 70.5396 93.3282 70.94C93.7358 71.3333 94.1433 71.6622 94.5366 71.9053C94.9299 72.1484 95.5377 72.4988 96.3528 72.9421C97.5184 73.5642 98.405 74.1792 98.9771 74.7727C99.5348 75.359 99.8208 76.117 99.8208 77.0465C99.8208 77.4898 99.7207 77.9475 99.5277 78.3908C99.3346 78.8341 98.9842 79.2131 98.4837 79.5277C97.9831 79.8424 97.3038 79.9997 96.4601 79.9997C95.3446 79.9997 94.3793 79.685 93.5999 79.063C92.8205 78.4409 92.2914 77.5113 92.0196 76.2886L92.0053 76.2171H91.6478V80.6504H92.0053L92.0196 80.5789C92.1054 80.1999 92.1698 79.9568 92.2127 79.8495C92.2342 79.7995 92.2842 79.7279 92.4487 79.7279C92.4987 79.7279 92.6203 79.7494 92.8848 79.8352C93.4354 80.1069 93.9932 80.3214 94.5366 80.4716C95.0801 80.6218 95.7093 80.7004 96.4172 80.7004C97.5398 80.7004 98.498 80.4788 99.2631 80.0426C100.028 79.6064 100.607 79.0415 100.986 78.3551C101.365 77.6758 101.558 76.9536 101.558 76.2171C101.558 75.0158 101.201 74.0505 100.493 73.3569L100.472 73.3855Z" fill="white"/>
<path d="M106.878 67.4935C107.415 66.8499 108.058 66.3422 108.795 65.9919C109.531 65.6415 110.332 65.4556 111.169 65.4556C111.784 65.4556 112.456 65.57 113.164 65.7988C113.872 66.0276 114.508 66.3923 115.051 66.8857C115.588 67.3791 115.924 67.9797 116.052 68.6876L116.067 68.7591H116.403L116.553 65.0194H116.224L116.21 65.0909C116.167 65.2768 116.11 65.3984 116.038 65.4627C115.988 65.5056 115.867 65.5557 115.573 65.5557C115.437 65.5557 115.273 65.5342 115.08 65.4985L114.029 65.2053C113.028 64.9407 112.07 64.8049 111.183 64.8049C109.739 64.8049 108.387 65.1767 107.157 65.9061C105.927 66.6354 104.941 67.6436 104.218 68.895C103.496 70.1463 103.132 71.5263 103.132 72.985C103.132 73.9575 103.31 74.9157 103.653 75.8309C103.997 76.7462 104.519 77.5828 105.191 78.3193C105.863 79.0558 106.7 79.6421 107.679 80.0783C108.659 80.5074 109.746 80.729 110.933 80.729C112.12 80.729 113.006 80.5646 113.757 80.2356C114.508 79.9139 115.337 79.3919 116.238 78.6983L116.274 78.6697V77.8331L116.124 77.9832C115.409 78.684 114.594 79.1917 113.707 79.4991C112.813 79.7995 111.984 79.9568 111.247 79.9568C110.361 79.9568 109.538 79.7923 108.816 79.4562C108.087 79.1273 107.443 78.6339 106.886 77.9832C106.335 77.3397 105.906 76.5674 105.613 75.6879C105.327 74.8084 105.177 73.8359 105.177 72.8063C105.177 71.7766 105.327 70.7398 105.627 69.8317C105.927 68.9236 106.349 68.137 106.886 67.4935H106.878Z" fill="white"/>
<path d="M131.39 66.0276C131.626 65.7416 132.012 65.5986 132.534 65.5986H132.62V65.2482H127.693V65.5986H127.779C128.301 65.5986 128.695 65.7416 128.938 66.0348C129.188 66.3279 129.309 66.7069 129.309 67.1717V72.0769H120.943V67.1717C120.943 66.6998 121.065 66.3208 121.315 66.0276C121.558 65.7416 121.944 65.5986 122.481 65.5986H122.567V65.2482H117.64V65.5986H117.726C118.734 65.5986 119.227 66.1134 119.227 67.1717V78.448C119.227 78.9414 119.099 79.3275 118.841 79.5992C118.584 79.8638 118.212 79.9997 117.726 79.9997H117.64V80.3429H122.567V79.9997H122.481C122.016 79.9997 121.637 79.8638 121.365 79.5921C121.094 79.3275 120.951 78.9414 120.951 78.448V72.7062H129.317V78.4695C129.317 78.9771 129.181 79.3633 128.916 79.6135C128.644 79.871 128.265 79.9997 127.786 79.9997H127.701V80.3429H132.627V79.9997H132.541C131.526 79.9997 131.033 79.492 131.033 78.448V67.1717C131.033 66.6998 131.154 66.3208 131.397 66.0276H131.39Z" fill="white"/>
<path d="M179.077 77.7115L179.055 77.7687C178.855 78.2621 178.662 78.6554 178.469 78.9271C178.283 79.1845 178.033 79.3847 177.711 79.5134C177.389 79.6421 176.946 79.7065 176.403 79.7065H175.115C174.4 79.7065 173.886 79.5849 173.578 79.349C173.278 79.1202 173.128 78.6911 173.128 78.0762V67.1931C173.128 66.5925 173.278 66.1778 173.578 65.9561C173.886 65.7344 174.243 65.6129 174.644 65.5986H174.729V65.2482H169.781V65.5986H169.867C170.282 65.6129 170.639 65.7344 170.932 65.9704C171.218 66.1921 171.369 66.6068 171.369 67.1931V78.4552C171.369 78.9485 171.233 79.3347 170.975 79.5992C170.711 79.8638 170.41 79.9997 170.074 79.9997H169.781V80.3429H178.812L179.42 77.7115H179.077Z" fill="white"/>
<path d="M86.9786 43.4964C86.9786 67.5221 67.5078 87 43.5036 87C19.4994 87 0 67.5221 0 43.4964C0 19.4708 19.4779 0 43.5036 0C67.5292 0 86.9786 19.4779 86.9786 43.4964ZM43.5179 1.63746C20.4003 1.63746 1.65891 20.3789 1.65891 43.5036C1.65891 66.6283 20.4075 85.3625 43.525 85.3625C66.6426 85.3625 85.384 66.6211 85.384 43.5036C85.384 20.386 66.6354 1.63746 43.5179 1.63746Z" fill="white"/>
<mask id="mask0_5322_3433" style="mask-type:luminance" maskUnits="userSpaceOnUse" x="4" y="4" width="79" height="79">
<path d="M43.5179 4.10438C21.7661 4.10438 4.12583 21.7446 4.12583 43.4964C4.12583 65.2482 21.7661 82.8885 43.5179 82.8885C65.2697 82.8885 82.9028 65.2625 82.9028 43.4964C82.9028 21.7303 65.2697 4.10438 43.5179 4.10438Z" fill="white"/>
</mask>
<g mask="url(#mask0_5322_3433)">
<path d="M70.1534 75.7308C70.1534 75.7308 84.1613 59.7709 83.3747 43.6323C82.295 21.523 65.427 3.54664 43.2891 3.54664C41.4013 3.54664 37.9619 3.91132 37.9619 3.91132C37.8332 3.92562 37.7331 3.94707 37.7331 3.96137C37.7331 3.97567 37.7689 4.09008 37.8046 4.21879C37.8046 4.21879 38.2909 5.91345 38.4267 6.69286C38.5626 7.47226 38.9845 9.59596 39.1418 11.1405C39.3062 12.685 39.0274 15.1733 38.1622 18.1336C37.2969 21.0939 35.1232 25.0124 33.6216 27.6867C32.1343 30.361 30.4754 34.5512 29.7317 37.3113C28.9952 40.0713 29.1096 44.998 29.2598 47.6366C29.41 50.2751 30.2108 55.9311 31.3549 59.442C32.5061 62.9529 34.4582 65.6129 34.4582 65.6129C34.5369 65.7201 34.637 65.7058 34.7013 65.5914C34.7013 65.5914 35.159 64.6619 35.4879 63.6036C35.8239 62.5525 36.1958 60.0713 36.303 58.1263C36.4031 56.1742 35.9312 53.4928 35.352 49.8318C34.7728 46.1636 34.7299 41.8375 35.0517 38.9273C35.3663 36.0099 35.9241 33.5501 37.0896 30.9473C38.248 28.3445 39.9069 26.228 41.1582 25.0839C44.9051 21.6588 48.5161 20.5291 49.3026 20.2788C53.3784 18.9702 60.057 18.8344 59.5636 19.0561C56.9536 20.193 53.5357 22.9674 53.5357 22.9674C53.5357 23.0961 50.2465 23.9684 48.9737 24.5977C47.7009 25.2198 46.042 26.3067 44.6834 27.6938C43.332 29.0739 40.8078 32.1844 40.3431 34.3724C39.7996 36.9251 38.82 38.8772 39.3634 42.8958C39.6995 45.4056 41.0224 48.9236 41.7088 50.6398C42.3952 52.3487 44.6262 55.4806 44.6262 55.4806C44.7049 55.5879 44.7764 55.5665 44.7907 55.4377L44.8693 54.7155C44.8836 54.5868 44.8479 54.3866 44.7978 54.2722C44.7978 54.2722 43.0602 50.2465 42.3237 47.9869C41.5872 45.7131 41.2226 42.6813 41.3942 40.0785C41.5658 37.4757 42.6455 33.9434 44.1614 31.8554C45.8775 29.4958 48.3159 27.6152 50.0105 26.5355C51.5264 25.563 53.8718 25.1626 54.2293 24.8766C54.594 24.5834 54.6941 24.4118 55.6451 23.2462C57.0609 21.5087 60.2071 19.8784 60.2071 19.8784C60.2286 19.7497 58.7985 23.7253 58.7985 23.7253C62.3451 26.6642 66.4924 29.4958 67.3075 30.3252C67.6865 30.7185 68.0298 33.6287 68.8735 35.9026C69.7173 38.1765 71.2832 40.865 72.1985 42.4882C73.1138 44.1185 74.5939 45.5844 75.3805 46.328C76.1742 47.0717 76.6318 47.8868 76.5531 48.6376C76.4673 49.3956 76.6175 50.0606 76.9679 50.8686C77.3182 51.6694 77.6901 52.2558 77.6329 52.7992C77.5757 53.3426 76.6747 54.5511 76.1026 54.8157C75.5306 55.0802 75.3376 54.8442 74.8656 54.1364C74.4008 53.4285 74.0862 53.2854 73.364 52.8779C72.6418 52.4703 72.0698 52.7349 71.3118 52.6562C70.561 52.5704 70.1463 52.9065 70.1463 52.9065C70.0462 52.9851 70.0104 53.1496 70.0533 53.2711C70.0533 53.2711 70.6611 54.6655 71.0115 55.4592C71.3619 56.26 72.3701 57.0252 72.649 57.4971C72.9278 57.9619 72.5632 58.255 71.5692 58.3623C70.5753 58.4696 69.6029 58.3694 68.9879 57.969C68.373 57.5757 68.1299 56.782 67.3791 55.7166C66.6211 54.6512 65.949 53.8146 64.004 52.6133C62.0591 51.4263 60.9079 50.9687 59.2847 49.8103C57.6687 48.6448 56.4317 46.9859 55.7023 45.5987C54.9801 44.2043 54.5582 41.6587 54.5582 41.6587C54.5368 41.53 54.4653 41.5157 54.4081 41.6301C54.4081 41.6301 53.7073 42.8672 54.0863 44.4331C54.4581 46.0062 56.1814 48.752 58.2264 51.5479C60.2214 54.2722 61.9947 56.4102 63.1674 58.3122C64.4617 60.4216 65.5342 62.6097 66.4995 64.7906C67.4649 66.9715 68.137 68.7877 68.4087 70.3465C68.6733 71.9053 68.6447 73.9575 68.6447 73.9575" fill="white"/>
<path d="M26.3996 7.12904C26.278 7.17194 26.2137 7.31495 26.2494 7.43651C26.2494 7.43651 28.4947 14.4869 28.8379 18.627C29.0596 21.3013 28.6949 25.8705 28.6949 25.8705C28.6806 25.9992 28.7307 26.0135 28.7879 25.8991C28.7879 25.8991 30.4539 22.8673 31.0474 21.2584C32.12 18.3696 32.5633 15.9098 32.5133 14.351C32.4632 12.7994 32.1128 10.2323 32.0342 9.4458C31.9555 8.65924 30.7185 5.8062 30.7185 5.8062C30.6684 5.69179 30.6255 5.59168 30.6255 5.59168C30.6255 5.59168 30.5254 5.62028 30.4039 5.66319L26.3996 7.13619V7.12904Z" fill="white"/>
<path d="M20.6435 25.7275C19.1419 21.237 17.626 13.0997 17.626 13.0997C17.6045 12.971 17.6689 12.8065 17.769 12.7279L22.0021 9.67461C22.1093 9.60311 22.2237 9.64601 22.2595 9.76757C22.2595 9.76757 24.7335 18.5269 25.0124 23.2462C25.1912 26.2995 25.0482 31.3549 25.0482 31.3549C25.0482 31.4836 24.991 31.6838 24.9266 31.7911L23.7611 33.9434C23.7039 34.0578 23.6181 34.0506 23.5752 33.9362C23.5752 33.9362 21.6159 28.6306 20.6506 25.7275H20.6435Z" fill="white"/>
<path d="M20.5434 42.5669C20.5076 42.6884 20.4146 42.717 20.3288 42.6169C20.3288 42.6169 16.3889 38.2623 14.5655 35.6666C11.8555 31.7911 8.30887 24.4404 8.30887 24.4404C8.25166 24.326 8.26596 24.1401 8.33032 24.0328L13.3571 16.9896C13.4358 16.8895 13.5359 16.8394 13.5716 16.868C13.6074 16.9038 13.6646 17.0325 13.6932 17.1612C13.6932 17.1612 15.7811 26.5283 17.4901 30.9473C18.5913 33.7932 21.2155 39.5923 21.2155 39.5923C21.2727 39.7067 21.287 39.9069 21.2513 40.0284L20.5434 42.5669Z" fill="white"/>
<path d="M19.7353 54.1292C19.7568 54.2508 19.6853 54.3008 19.578 54.2293C19.578 54.2293 14.823 51.2547 11.877 48.6805C8.30887 45.5772 3.6825 38.8987 3.6825 38.8987C3.611 38.7914 3.56809 38.6055 3.60385 38.4839L5.43437 30.8472C5.47727 30.7257 5.54878 30.7185 5.59883 30.8401C5.59883 30.8401 9.22413 39.0488 12.1272 42.7885C14.7229 46.1278 19.1776 50.2822 19.1776 50.2822C19.2777 50.368 19.3635 50.5397 19.3707 50.6755L19.7425 54.1364L19.7353 54.1292Z" fill="white"/>
<path d="M4.11153 46.2065C6.45689 49.9605 9.74612 53.6787 13.4143 56.6676C16.4962 59.1774 21.3943 62.0305 21.3943 62.0305C21.5087 62.0948 22.3739 64.6333 22.3739 64.6333C22.4096 64.7548 21.6946 64.5904 21.573 64.5403C21.573 64.5403 17.1254 63.0745 13.6646 61.2654C10.0393 59.3705 4.71217 54.2722 4.71217 54.2722C4.61206 54.1864 4.78368 53.643 4.75507 53.5143C4.75507 53.5143 3.64675 48.2086 3.50374 45.6416L4.11153 46.2065Z" fill="white"/>
<path d="M4.19733 59.0058C7.62957 61.7945 12.1415 66.3208 16.2531 68.6733C22.6027 72.3129 27.2791 72.6347 27.2791 72.6347C27.4007 72.6633 27.7296 73.1996 27.7296 73.1996C27.8082 73.2997 27.0717 73.3783 26.943 73.3712C26.943 73.3712 22.2523 73.4212 18.3982 72.8277C14.3582 72.2056 8.1158 69.1524 8.1158 69.1524C7.99424 69.1023 7.53661 68.4802 7.47226 68.3658C7.47226 68.3658 5.98496 63.7752 5.01964 61.3941L4.20448 58.9987L4.19733 59.0058Z" fill="white"/>
<path d="M61.9804 32.4489C61.9804 32.4489 62.4524 32.8422 62.9958 33.1711C63.5392 33.4929 64.6261 34.2508 64.9479 34.9087C65.2768 35.5594 65.2768 36.539 65.2768 37.1897C65.2768 37.8404 65.2053 38.3695 65.2053 38.3695C65.191 38.4982 65.0766 38.5697 64.955 38.5268C64.955 38.5268 63.3319 37.9548 62.8957 36.9752C62.7241 36.5747 63.2246 36.2172 63.4391 35.6738C63.6608 35.1303 63.6608 34.8014 63.3319 34.5869C63.003 34.3652 62.7884 34.258 62.4667 34.258C62.1449 34.258 62.0305 34.5869 62.0305 35.0159C62.0305 35.445 61.9375 35.4092 61.816 35.3592C61.816 35.3592 61.2725 35.1232 61.2725 34.4725C61.2725 33.8218 61.1653 33.6073 61.4871 32.9495C61.816 32.2988 61.8946 32.3703 61.9947 32.4489H61.9804Z" fill="white"/>
</g>
</g>
<defs>
<clipPath id="clip0_5322_3433">
<rect width="243.953" height="87" fill="white"/>
</clipPath>
</defs>
</svg>
